<svg fill="none" height="56" viewBox="0 0 56 56" width="56" xmlns="http://www.w3.org/2000/svg">
  <path
    d="M22.62 39.38a.9.9 0 0 0-.3-.67l-1.97-1.76 1.1-1.75a1.5 1.5 0 0 0-.3-1.92l-1.6-1.34 1.15-1.81a1.5 1.5 0 0 0-.3-1.93l-1.61-1.34 1.14-1.81c.4-.62.26-1.45-.3-1.92l-1.61-1.34 1.15-1.83c.4-.62.26-1.45-.3-1.92l-1.6-1.34 1.13-1.81a1.5 1.5 0 0 0-.3-1.93l-1.63-1.36.82-1.37A1.48 1.48 0 0 0 16 8l-6.46.02c-.82 0-1.47.67-1.47 1.5l.08 24.85a2.57 2.57 0 0 0-.57 1.62l.04 10.94a2.06 2.06 0 0 0 2.06 2.04h.58a2.05 2.05 0 0 0 2.05-2.06c0-.13.1-.24.24-.24l5.19-.03c.13 0 .24.11.24.25a2.06 2.06 0 0 0 2.06 2.05h.58c.55 0 1.07-.23 1.45-.61l.12-.12c.3-.38.48-.85.48-1.33l-.06-7.5Zm-2.6 7.75a.24.24 0 0 1-.18-.08.25.25 0 0 1-.07-.17 2.07 2.07 0 0 0-2.06-2.05l-5.18.02c-.55 0-1.07.23-1.45.61l-.11.13c-.31.37-.49.84-.49 1.32 0 .07-.02.13-.07.18a.24.24 0 0 1-.18.07h-.57a.24.24 0 0 1-.17-.07.24.24 0 0 1-.07-.18l-.04-10.93c0-.46.37-.82.82-.83l4.65-.01c.5 0 .96.17 1.32.5l4.65 4.15.02 7.09c0 .06-.02.12-.07.17a.24.24 0 0 1-.17.08H20ZM14.75 10.9c-.37.62-.24 1.42.32 1.89l1.62 1.35-1.15 1.81a1.5 1.5 0 0 0 .3 1.93l1.61 1.34-1.15 1.82a1.5 1.5 0 0 0 .3 1.93l1.6 1.34-1.13 1.8a1.5 1.5 0 0 0 .3 1.93l1.6 1.34-1.15 1.81a1.5 1.5 0 0 0 .3 1.93l1.61 1.34-.8 1.26-1.6-1.44a3.76 3.76 0 0 0-2.52-.95h-4.66l-.25.02-.1-23.54 5.6-.05-.65 1.14Z"
    fill="#000"></path>
  <path
    d="m18.84 39.47-3.68-3.13a1.48 1.48 0 0 0-1.03-.35l-2.22.23a1.46 1.46 0 0 0-1.46 1.48v4.6c0 .8.68 1.48 1.48 1.48l5.75-.03a1.5 1.5 0 0 0 1.48-1.41l.17-1.65v-.1c.03-.43-.16-.84-.5-1.12Zm-1.3 1.25-.13 1.23-3.74.01-1.39.03.02-4 1.81-.18 3.43 2.91Zm-5.92-11.98c-.01 0-.01 0 0 0a.9.9 0 0 0-.64.27.89.89 0 0 0-.26.64v1.16a.9.9 0 0 0 .9.9.9.9 0 0 0 .9-.91v-1.16a.91.91 0 0 0-.9-.9Zm-.36-.94a.85.85 0 0 0 1.14-.82V12.66c0-.3-.17-.6-.44-.74a.87.87 0 0 0-.86 0 .89.89 0 0 0-.42.74L10.7 27c.02.37.24.7.57.8ZM47.89 8.47a.88.88 0 0 0-.62-.26L45.4 8.2h-.01a.87.87 0 0 0-.87.8l-.05.48-.1-.57a.86.86 0 0 0-.86-.72l-2.5-.03H41a.89.89 0 0 0-.85.63l-.12.44-.05-.32a.88.88 0 0 0-.85-.76l-4.38-.04c-.23 0-.47.1-.63.26a.95.95 0 0 0-.62-.27L31 8.07h-.02a.84.84 0 0 0-.6.25.88.88 0 0 0-.27.62l-.08 15.04c0 .38.23.71.6.83l3.24 1.12a2.62 2.62 0 0 1 1.76 2.4l-.36 1.58a37.04 37.04 0 0 0-.95 8.18c-.02 2.4.4 4.78 1.21 7.04a3.6 3.6 0 0 0 3.34 2.36h.02a3.6 3.6 0 0 0 3.35-2.3 19.73 19.73 0 0 0 1.32-7.02c.03-2.75-.26-5.5-.83-8.2l-.34-1.58a2.63 2.63 0 0 1 1.8-2.37l3.25-1.07c.36-.11.6-.45.61-.83l.11-15.03a.9.9 0 0 0-.27-.62Zm-7.26 19.97c0 .06 0 .12.02.18l.36 1.7c.55 2.55.82 5.18.8 7.8-.02 2.2-.43 4.35-1.22 6.4-.27.7-.96 1.18-1.71 1.18h-.01c-.76 0-1.45-.49-1.71-1.2a18.32 18.32 0 0 1-1.12-6.43c.02-2.62.32-5.24.92-7.8l.38-1.66a4.34 4.34 0 0 0-2.91-4.33l-2.65-.9V23l14.51.11v.38l-2.66.87a4.29 4.29 0 0 0-3 4.08Zm5.68-7.84v.75l-14.5-.11v-.76l14.5.12Zm.08-10.65-.06 8.9-14.52-.12.07-8.9.89.02.48 3.03c.06.42.42.73.86.73.43 0 .79-.3.86-.72l.52-3.03 2.88.03.5 3.63c.05.41.38.72.79.76.42.04.8-.22.9-.62l1.1-3.75 1.12.01 1.08 6.18a.88.88 0 0 0 1.74-.08l.6-6.08h.19Z"
    fill="#000"></path>
</svg>
