<svg fill="none" height="56" viewBox="0 0 56 56" width="56" xmlns="http://www.w3.org/2000/svg">
  <path
    d="M47.236 36.83c-.793 0-1.425.633-1.437 1.428 0 .794.632 1.427 1.425 1.44.793.011 1.425-.634 1.438-1.428 0-.794-.632-1.427-1.426-1.44Zm-26.214-.037c-.793 0-1.426.633-1.438 1.427 0 .795.632 1.427 1.425 1.44.794 0 1.426-.633 1.438-1.427a1.43 1.43 0 0 0-1.425-1.44ZM46.43 24.024h-1.673a.873.873 0 0 0-.88.87l-.012 6.13c0 .483.384.88.867.88l5.888.013a1.51 1.51 0 0 0 1.314-.757 1.533 1.533 0 0 0 .012-1.514l-2.033-3.574a4.022 4.022 0 0 0-3.482-2.048Zm-.805 6.13.012-4.38h.794c.818 0 1.561.447 1.97 1.142l1.835 3.238h-4.611ZM22.41 20.96c0 .645-.52 1.166-1.165 1.153h-.012a1.154 1.154 0 0 1-1.153-1.166c0-.645.52-1.166 1.165-1.154a1.173 1.173 0 0 1 1.165 1.166Zm-3.867 5.025L5.64 25.96a1.053 1.053 0 0 1-1.054-1.055c0-.583.471-1.054 1.054-1.054l12.903.024c.582 0 1.053.472 1.053 1.055a1.06 1.06 0 0 1-1.053 1.055Zm-4.375 4.157-12.903-.025A1.053 1.053 0 0 1 .21 29.062c0-.583.471-1.054 1.054-1.054l12.903.024c.582 0 1.053.472 1.053 1.055s-.47 1.055-1.053 1.055Zm3.346-8.326-16.46-.025A1.053 1.053 0 0 1 0 20.736c0-.583.471-1.055 1.054-1.055l16.46.025c.582 0 1.053.471 1.053 1.055 0 .583-.47 1.055-1.053 1.055Z"
    fill="#000"></path>
  <path
    d="m55.79 28.181-2.777-4.268a6.834 6.834 0 0 0-5.739-3.103l-7.015-.012.012-3.97c0-2.644-2.132-4.79-4.772-4.79L14.973 12h-.012a4.722 4.722 0 0 0-3.371 1.402 4.733 4.733 0 0 0-1.401 3.376l-.025 16.652a4.569 4.569 0 0 0-2.627 4.12v.869c0 .372.16.658.483.844.31.186.67.21.855.21l7.326.013a4.991 4.991 0 0 0 4.846 3.748h.012a4.991 4.991 0 0 0 4.847-3.736l16.522.025a4.991 4.991 0 0 0 4.846 3.748h.012a4.99 4.99 0 0 0 4.847-3.735h2.801c.583 0 1.054-.472 1.054-1.055L56 28.74a1.62 1.62 0 0 0-.21-.559Zm-1.947.894-.012 8.364h-1.649c-.396-2.395-2.49-4.182-4.933-4.195h-.012a5.026 5.026 0 0 0-4.933 4.17H40.22l.025-14.506 7.016.012c1.611 0 3.098.807 3.966 2.147l2.615 4.008Zm-4.56 11.243a2.877 2.877 0 0 1-2.046.843 2.887 2.887 0 0 1-2.888-2.903c0-.77.31-1.502.855-2.048a2.826 2.826 0 0 1 2.045-.844c.769 0 1.5.31 2.045.856.546.547.843 1.279.843 2.048 0 .782-.31 1.502-.855 2.047Zm-32.203-5.2a5.054 5.054 0 0 0-1.003 2.246l-6.446-.012a2.456 2.456 0 0 1 2.442-2.246l5.008.012ZM12.285 19.47v-2.692a2.666 2.666 0 0 1 2.652-2.656l20.526.037c1.462 0 2.652 1.204 2.652 2.668l-.024 16.219-25.843-.05.024-13.327.013-.199Zm8.738 21.654a2.906 2.906 0 0 1-2.9-2.904c0-.769.31-1.501.855-2.047a2.889 2.889 0 0 1 4.09.012c.546.546.843 1.278.843 2.048a2.893 2.893 0 0 1-2.888 2.891Zm17.08-5.969v2.259l-12.134-.025a5.02 5.02 0 0 0-.992-2.259l13.126.025Z"
    fill="#000"></path>
</svg>
