<svg fill="none" height="56" viewBox="0 0 56 56" width="56" xmlns="http://www.w3.org/2000/svg">
  <path
    d="m32.368 24.49-6.089 5.747-2.922-3.004a.842.842 0 0 0-1.207 1.173l3.504 3.596a.858.858 0 0 0 1.191.025l6.697-6.314a.84.84 0 0 0 .034-1.19.862.862 0 0 0-1.208-.034Z"
    fill="#000" stroke="#000" stroke-opacity=".5" stroke-width=".6"></path>
  <path
    d="M27.85 15.643c-6.959 0-12.617 5.656-12.617 12.61 0 6.956 5.658 12.611 12.617 12.611 6.96 0 12.617-5.655 12.617-12.61 0-6.955-5.658-12.61-12.617-12.61Zm0 23.533c-6.03 0-10.928-4.904-10.928-10.922 0-6.019 4.898-10.923 10.928-10.923 6.036 0 10.928 4.89 10.928 10.923 0 6.032-4.892 10.922-10.928 10.922Z"
    fill="#000" stroke="#000" stroke-opacity=".5" stroke-width=".6"></path>
  <path
    d="m45.214 23.611.278-5.005a.842.842 0 0 0-.464-.802l-4.46-2.254-2.254-4.457a.857.857 0 0 0-.802-.464l-5.017.27-4.18-2.76a.844.844 0 0 0-.93 0l-4.18 2.76-5.007-.278a.841.841 0 0 0-.803.464l-2.255 4.457-4.459 2.254a.855.855 0 0 0-.464.802l.278 5.005-2.761 4.178a.843.843 0 0 0 0 .929l2.753 4.186-.279 5.005a.841.841 0 0 0 .465.802l4.459 2.254 2.255 4.457c.153.298.466.48.802.464l5.008-.279 4.18 2.76c.28.192.65.192.93 0l4.18-2.76 5.008.279a.843.843 0 0 0 .802-.464l2.255-4.457 4.459-2.254a.856.856 0 0 0 .464-.802l-.278-5.005 2.761-4.178a.843.843 0 0 0 0-.929l-2.744-4.178Zm-1.571 8.593a.792.792 0 0 0-.135.515l.261 4.735-4.214 2.127a.833.833 0 0 0-.371.372l-2.129 4.211-4.737-.261a.923.923 0 0 0-.515.135l-3.953 2.608-3.952-2.608a.836.836 0 0 0-.465-.143h-.042l-4.738.261-2.128-4.212a.83.83 0 0 0-.371-.371l-4.223-2.119.262-4.735a.922.922 0 0 0-.136-.515l-2.609-3.95 2.61-3.95a.79.79 0 0 0 .135-.515l-.262-4.736 4.214-2.127c.16-.08.291-.21.372-.371l2.128-4.212 4.738.262c.18.006.36-.041.515-.136l3.952-2.608 3.952 2.608a.792.792 0 0 0 .516.136l4.737-.262 2.129 4.212c.08.16.21.29.371.371l4.214 2.127-.261 4.736c-.007.18.04.36.135.514l2.61 3.95-2.61 3.951Z"
    fill="#000" stroke="#000" stroke-opacity=".5" stroke-width=".6"></path>
</svg>
