<svg fill="none" height="56" viewBox="0 0 56 56" width="56" xmlns="http://www.w3.org/2000/svg">
  <path
    d="M37.803 8.866c-.605 0-1.09.487-1.09 1.092v1.957A18.643 18.643 0 0 0 25.23 8a18.736 18.736 0 0 0-13.356 5.505A18.752 18.752 0 0 0 6.33 26.852a18.78 18.78 0 0 0 5.498 13.37c.213.214.486.32.77.32.285 0 .557-.106.77-.32a1.09 1.09 0 0 0 0-1.542 16.598 16.598 0 0 1-4.87-11.828c.012-9.218 7.513-16.705 16.72-16.68a16.692 16.692 0 0 1 9.6 3.048h-1.375c-.605 0-1.09.487-1.09 1.092 0 .605.486 1.091 1.09 1.091l4.36.012h.107c.036 0 .06-.012.095-.012h.012a.22.22 0 0 0 .083-.024h.024c.023-.011.059-.011.083-.023.011 0 .011 0 .023-.012l.071-.036c.012 0 .012-.012.024-.012a.245.245 0 0 0 .071-.047l.012-.012c.119-.083.225-.19.308-.309l.012-.011c.012-.024.036-.048.048-.072 0-.011.011-.011.011-.023l.036-.071c0-.012 0-.012.012-.024a.172.172 0 0 0 .023-.083v-.012c.012-.024.012-.06.024-.083v-.012c.012-.06.024-.13.024-.19l.012-4.366c-.024-.617-.51-1.115-1.114-1.115Z"
    fill="#000"></path>
  <path
    d="M18.83 26.875a2.49 2.49 0 0 0 1.636-2.337 2.487 2.487 0 0 0-2.477-2.491l-3.579-.012c-.604 0-1.09.486-1.09 1.091 0 .606.486 1.092 1.09 1.092l3.58.012c.165 0 .307.142.307.308a.304.304 0 0 1-.237.297l-2.381.593a1.486 1.486 0 0 0 0 2.883l2.37.593a.304.304 0 0 1 .236.297.314.314 0 0 1-.308.308l-3.578-.012c-.605 0-1.09.487-1.09 1.092 0 .605.485 1.091 1.09 1.091l3.578.012a2.487 2.487 0 0 0 2.489-2.48 2.518 2.518 0 0 0-1.635-2.337Zm6.992-1.079h-2.026v-.783c0-.427.355-.783.782-.771h3.105c.604 0 1.09-.487 1.09-1.092 0-.605-.486-1.091-1.09-1.091h-3.105a2.963 2.963 0 0 0-2.963 2.954l-.011 3.737c0 1.625 1.315 2.966 2.95 2.966H25.8a2.96 2.96 0 0 0 .024-5.92Zm-.012 3.737h-1.244a.772.772 0 0 1-.77-.783v-.783h2.026c.427 0 .782.356.77.783a.782.782 0 0 1-.782.783Zm8.33-7.451h-1.243a2.963 2.963 0 0 0-2.963 2.954l-.012 3.738c0 1.625 1.316 2.966 2.95 2.966h1.245a2.963 2.963 0 0 0 2.963-2.954l.012-3.738a2.963 2.963 0 0 0-2.951-2.966Zm.76 6.692a.772.772 0 0 1-.783.77h-1.244a.78.78 0 0 1-.77-.782l.011-3.737c0-.427.356-.783.783-.771h1.244a.78.78 0 0 1 .77.782l-.012 3.738Zm-9.303 14.829a10.11 10.11 0 0 1-.853 0 1.086 1.086 0 0 0-.06 2.172c.154 0 .32.011.474.011h.486a1.088 1.088 0 0 0 1.067-1.115 1.088 1.088 0 0 0-1.114-1.068Zm-8.402-2.04a9.117 9.117 0 0 1-.735-.427 1.08 1.08 0 0 0-1.493.356c-.32.51-.154 1.186.356 1.495.272.166.545.332.83.486.165.095.343.13.52.13.392 0 .76-.201.96-.569a1.103 1.103 0 0 0-.438-1.471Zm4.065 1.577a21.083 21.083 0 0 1-.818-.225 1.083 1.083 0 0 0-1.35.736 1.085 1.085 0 0 0 .734 1.352c.308.095.616.178.924.25a1.077 1.077 0 0 0 1.315-.795c.13-.593-.225-1.187-.805-1.317Zm9.99.535a1.074 1.074 0 0 0-1.351-.736c-.273.083-.545.154-.818.214-.58.142-.948.723-.806 1.316.119.499.569.843 1.055.843.083 0 .166-.012.26-.036.309-.071.617-.154.925-.249.58-.178.9-.783.735-1.352ZM42.732 30.02a1.087 1.087 0 0 0-1.315.806c-.071.273-.142.546-.225.819a1.085 1.085 0 0 0 .734 1.352.928.928 0 0 0 .309.048c.474 0 .9-.309 1.042-.783.095-.309.178-.617.25-.926a1.072 1.072 0 0 0-.795-1.317Zm1.328-3.584a1.09 1.09 0 0 0-1.09-1.067h-.024a1.088 1.088 0 0 0-1.067 1.115v.854a1.086 1.086 0 0 0 1.055 1.115h.024c.592 0 1.078-.474 1.09-1.056 0-.154.012-.308.012-.462.011-.178 0-.344 0-.499Zm-8.675 15.091a1.08 1.08 0 0 0-1.493-.355 40.84 40.84 0 0 1-.735.427A1.093 1.093 0 0 0 34.2 43.52c.284-.155.557-.309.83-.475.497-.332.663-1.008.355-1.519Z"
    fill="#000"></path>
  <path
    d="M49.037 36.746a.846.846 0 0 0-.474-.664l-7.063-3.31a.803.803 0 0 0-.7 0l-7.074 3.286a.846.846 0 0 0-.474.664v.072l-.012 8.031c0 .344.202.641.522.771l7.062 2.848a.89.89 0 0 0 .309.06.889.889 0 0 0 .308-.06l7.074-2.824a.823.823 0 0 0 .522-.77l.011-8.02s-.011-.072-.011-.084Zm-8.722 3.464-.012 6.24-5.415-2.182.011-6.24 5.416 2.182Zm5.818-3.44-4.989 1.993-4.988-2.005 4.988-2.325 4.99 2.337Zm1.256 1.281-.011 6.24-5.416 2.16.012-6.24 5.415-2.16Z"
    fill="#000"></path>
</svg>
